<svg width="1440" height="98" viewBox="0 0 1440 98" fill="none" xmlns="http://www.w3.org/2000/svg">
<rect y="5" width="1440" height="93" fill="black"/>
<rect width="1440" height="98" fill="url(#paint0_radial_396_218)"/>
<path d="M649.485 40.8H658.825L658.205 43.68H652.145L651.565 46.44H656.765L656.205 49.1H651.005L650.345 52.12H656.585L655.985 55H646.465L649.485 40.8ZM662.628 48L659.528 40.8H663.088L664.868 45.7L668.708 40.8H672.248L666.088 48L669.068 55H665.528L663.868 50.3L660.228 55H656.668L662.628 48ZM673.508 40.8H679.288C680.022 40.8 680.648 40.9933 681.168 41.38C681.702 41.7667 682.108 42.2667 682.388 42.88C682.668 43.48 682.808 44.12 682.808 44.8C682.808 45.48 682.662 46.1533 682.368 46.82C682.088 47.4867 681.695 48.0933 681.188 48.64C680.682 49.1733 680.095 49.6067 679.428 49.94C678.775 50.26 678.075 50.42 677.328 50.42H674.728L673.768 55H670.488L673.508 40.8ZM677.728 47.56C677.928 47.56 678.128 47.5 678.328 47.38C678.528 47.26 678.715 47.0933 678.888 46.88C679.062 46.6667 679.195 46.4067 679.288 46.1C679.395 45.7933 679.448 45.4533 679.448 45.08C679.448 44.76 679.402 44.5 679.308 44.3C679.215 44.0867 679.088 43.9333 678.928 43.84C678.782 43.7333 678.622 43.68 678.448 43.68H676.168L675.348 47.56H677.728ZM685.539 40.8H688.819L686.399 52.12H692.819L692.219 55H682.519L685.539 40.8ZM699.241 55.12C698.374 55.12 697.607 54.96 696.941 54.64C696.274 54.3067 695.714 53.8667 695.261 53.32C694.807 52.76 694.461 52.1267 694.221 51.42C693.994 50.7 693.881 49.9533 693.881 49.18C693.881 48.3267 694.027 47.4867 694.321 46.66C694.614 45.8333 695.027 45.06 695.561 44.34C696.094 43.62 696.714 42.9933 697.421 42.46C698.141 41.9133 698.921 41.4867 699.761 41.18C700.601 40.8733 701.467 40.72 702.361 40.72C703.214 40.72 703.974 40.8867 704.641 41.22C705.307 41.54 705.867 41.98 706.321 42.54C706.774 43.1 707.114 43.7333 707.341 44.44C707.567 45.1467 707.681 45.8867 707.681 46.66C707.681 47.5133 707.534 48.3533 707.241 49.18C706.947 49.9933 706.534 50.76 706.001 51.48C705.467 52.1867 704.847 52.8133 704.141 53.36C703.434 53.9067 702.661 54.34 701.821 54.66C700.994 54.9667 700.134 55.12 699.241 55.12ZM699.881 52.2C700.574 52.2 701.194 52.04 701.741 51.72C702.287 51.3867 702.754 50.96 703.141 50.44C703.527 49.9067 703.821 49.3333 704.021 48.72C704.221 48.0933 704.321 47.48 704.321 46.88C704.321 46.3067 704.227 45.7733 704.041 45.28C703.854 44.7867 703.567 44.3933 703.181 44.1C702.794 43.7933 702.294 43.64 701.681 43.64C701.001 43.64 700.387 43.8 699.841 44.12C699.294 44.44 698.827 44.86 698.441 45.38C698.054 45.9 697.754 46.4733 697.541 47.1C697.341 47.7133 697.241 48.32 697.241 48.92C697.241 49.5067 697.334 50.0467 697.521 50.54C697.707 51.0333 697.994 51.4333 698.381 51.74C698.781 52.0467 699.281 52.2 699.881 52.2ZM707.969 55L710.989 40.8H717.089C717.835 40.8 718.469 40.9933 718.989 41.38C719.522 41.7667 719.922 42.2667 720.189 42.88C720.469 43.48 720.609 44.12 720.609 44.8C720.609 45.2933 720.535 45.78 720.389 46.26C720.242 46.74 720.029 47.2 719.749 47.64C719.469 48.08 719.135 48.48 718.749 48.84C718.375 49.1867 717.962 49.48 717.509 49.72L719.329 55H715.629L714.069 50.42H712.209L711.249 55H707.969ZM715.549 47.56C715.735 47.56 715.929 47.5 716.129 47.38C716.329 47.2467 716.509 47.0733 716.669 46.86C716.842 46.6333 716.975 46.3733 717.069 46.08C717.175 45.7867 717.229 45.4733 717.229 45.14C717.229 44.8467 717.182 44.5933 717.089 44.38C717.009 44.1533 716.895 43.98 716.749 43.86C716.602 43.74 716.442 43.68 716.269 43.68H713.649L712.829 47.56H715.549ZM723.938 40.8H733.278L732.658 43.68H726.598L726.018 46.44H731.218L730.658 49.1H725.458L724.798 52.12H731.038L730.438 55H720.918L723.938 40.8ZM740.071 40.8H743.631L745.391 48.22L750.311 40.8H753.871L750.851 55H747.551L749.371 46.5L745.311 52.68H743.551L742.151 46.5L740.331 55H737.051L740.071 40.8ZM759.495 55.12C758.628 55.12 757.861 54.96 757.195 54.64C756.528 54.3067 755.968 53.8667 755.515 53.32C755.061 52.76 754.715 52.1267 754.475 51.42C754.248 50.7 754.135 49.9533 754.135 49.18C754.135 48.3267 754.281 47.4867 754.575 46.66C754.868 45.8333 755.281 45.06 755.815 44.34C756.348 43.62 756.968 42.9933 757.675 42.46C758.395 41.9133 759.175 41.4867 760.015 41.18C760.855 40.8733 761.721 40.72 762.615 40.72C763.468 40.72 764.228 40.8867 764.895 41.22C765.561 41.54 766.121 41.98 766.575 42.54C767.028 43.1 767.368 43.7333 767.595 44.44C767.821 45.1467 767.935 45.8867 767.935 46.66C767.935 47.5133 767.788 48.3533 767.495 49.18C767.201 49.9933 766.788 50.76 766.255 51.48C765.721 52.1867 765.101 52.8133 764.395 53.36C763.688 53.9067 762.915 54.34 762.075 54.66C761.248 54.9667 760.388 55.12 759.495 55.12ZM760.135 52.2C760.828 52.2 761.448 52.04 761.995 51.72C762.541 51.3867 763.008 50.96 763.395 50.44C763.781 49.9067 764.075 49.3333 764.275 48.72C764.475 48.0933 764.575 47.48 764.575 46.88C764.575 46.3067 764.481 45.7733 764.295 45.28C764.108 44.7867 763.821 44.3933 763.435 44.1C763.048 43.7933 762.548 43.64 761.935 43.64C761.255 43.64 760.641 43.8 760.095 44.12C759.548 44.44 759.081 44.86 758.695 45.38C758.308 45.9 758.008 46.4733 757.795 47.1C757.595 47.7133 757.495 48.32 757.495 48.92C757.495 49.5067 757.588 50.0467 757.775 50.54C757.961 51.0333 758.248 51.4333 758.635 51.74C759.035 52.0467 759.535 52.2 760.135 52.2ZM768.223 55L771.243 40.8H777.343C778.089 40.8 778.723 40.9933 779.243 41.38C779.776 41.7667 780.176 42.2667 780.443 42.88C780.723 43.48 780.863 44.12 780.863 44.8C780.863 45.2933 780.789 45.78 780.643 46.26C780.496 46.74 780.283 47.2 780.003 47.64C779.723 48.08 779.389 48.48 779.003 48.84C778.629 49.1867 778.216 49.48 777.763 49.72L779.583 55H775.883L774.323 50.42H772.463L771.503 55H768.223ZM775.803 47.56C775.989 47.56 776.183 47.5 776.383 47.38C776.583 47.2467 776.763 47.0733 776.923 46.86C777.096 46.6333 777.229 46.3733 777.323 46.08C777.429 45.7867 777.483 45.4733 777.483 45.14C777.483 44.8467 777.436 44.5933 777.343 44.38C777.263 44.1533 777.149 43.98 777.003 43.86C776.856 43.74 776.696 43.68 776.523 43.68H773.903L773.083 47.56H775.803ZM784.192 40.8H793.532L792.912 43.68H786.852L786.272 46.44H791.472L790.912 49.1H785.712L785.052 52.12H791.292L790.692 55H781.172L784.192 40.8Z" fill="white"/>
<g opacity="0.6">
<path d="M862 62L850 50L852.8 47.2L862 56.35L871.2 47.2L874 50L862 62ZM862 50L850 38L852.8 35.2L862 44.35L871.2 35.2L874 38L862 50Z" fill="#DBDBDB"/>
</g>
<g opacity="0.6">
<path d="M577 63L565 51L567.8 48.2L577 57.35L586.2 48.2L589 51L577 63ZM577 51L565 39L567.8 36.2L577 45.35L586.2 36.2L589 39L577 51Z" fill="#DBDBDB"/>
</g>
<defs>
<radialGradient id="paint0_radial_396_218" cx="0" cy="0" r="1" gradientUnits="userSpaceOnUse" gradientTransform="translate(728 -5.25025) rotate(13.6674) scale(678.204 9965.45)">
<stop offset="0.007757" stop-color="#C44536"/>
<stop offset="1" stop-opacity="0"/>
</radialGradient>
</defs>
</svg>
